<svg width="251" height="81" viewBox="0 0 251 81" fill="none" xmlns="http://www.w3.org/2000/svg">
<g clip-path="url(#clip0_38_5528)">
<path d="M53.0604 41.1001C53.0406 41.263 53.0175 41.4294 52.9911 41.5929C48.66 39.3955 45.2721 35.6768 43.4633 31.135C43.4545 31.115 43.449 31.0972 43.4402 31.0794C45.6668 30.8958 47.8681 31.135 49.9102 31.8059C49.9118 31.8057 49.9133 31.8059 49.9148 31.8065C49.9162 31.8071 49.9175 31.808 49.9185 31.8092C50.6284 32.0428 51.3198 32.3304 51.9865 32.6698C52.0036 32.6762 52.0202 32.684 52.0361 32.6931C53.1183 35.2915 53.4504 38.1913 53.0604 41.1001Z" fill="white"/>
<path d="M35.2336 58.4259C32.8103 58.6706 30.4157 58.4108 28.2144 57.6437C27.5711 57.4204 26.9437 57.1524 26.337 56.8416C26.2158 56.5501 26.1035 56.2525 25.9994 55.9516C25.1325 53.4222 24.9392 50.6536 25.3897 47.894C25.4387 47.9173 25.491 47.9435 25.5401 47.9696C29.8807 50.1063 33.3028 53.766 35.1669 58.2651C35.1901 58.3179 35.2104 58.373 35.2336 58.4259Z" fill="white"/>
<path d="M46.3422 38.2773C44.4696 36.2494 43.0029 33.8748 42.0228 31.2844C42.0228 31.2755 42.014 31.2638 42.0112 31.2549C41.5547 31.3312 41.0986 31.4218 40.6448 31.5331C40.6411 31.5318 40.637 31.5318 40.6333 31.5331C37.4214 32.3119 34.2706 33.9807 31.5759 36.5128C29.8609 38.1169 28.4262 40.0019 27.3325 42.0883C26.6055 43.4817 26.0479 44.9587 25.672 46.4873C25.7122 46.5051 25.7496 46.5257 25.7904 46.5429C30.7134 48.87 34.5747 53.0028 36.5898 58.1017C36.6102 58.1456 36.6272 58.1918 36.6449 58.2357C38.1318 57.9655 39.582 57.5191 40.9654 56.9057C43.1095 55.9519 45.0791 54.64 46.7916 53.0251C49.8355 50.1631 51.8259 46.6364 52.7037 43.0156C50.3079 41.8529 48.1499 40.2455 46.3422 38.2773ZM46.3593 45.4599C46.293 45.5224 46.2151 45.5711 46.1301 45.6032C46.0452 45.6353 45.9548 45.6502 45.8641 45.6469C45.7735 45.6436 45.6843 45.6224 45.6018 45.5842C45.5193 45.5461 45.4451 45.492 45.3834 45.4248L42.769 42.5878L40.2736 44.9336L42.8874 47.7706C43.0083 47.9066 43.0714 48.0851 43.0633 48.2677C43.0552 48.4503 42.9765 48.6224 42.8441 48.747C42.7117 48.8715 42.5362 48.9386 42.3553 48.9338C42.1744 48.929 42.0026 48.8527 41.8768 48.7213L39.2625 45.8843L36.7671 48.2301L39.3809 51.0671C39.4427 51.1341 39.4909 51.2128 39.5226 51.2986C39.5544 51.3844 39.5691 51.4757 39.5659 51.5673C39.5627 51.6588 39.5417 51.7488 39.504 51.8322C39.4664 51.9155 39.4128 51.9906 39.3465 52.0531C39.2801 52.1155 39.2022 52.1642 39.1173 52.1962C39.0323 52.2283 38.9419 52.2431 38.8513 52.2399C38.7606 52.2366 38.6715 52.2154 38.589 52.1774C38.5064 52.1394 38.4321 52.0853 38.3703 52.0183L35.7565 49.1813L34.8522 50.0302C34.7181 50.1563 34.5399 50.2235 34.3568 50.2169C34.1737 50.2103 34.0006 50.1306 33.8758 49.9951C33.7509 49.8597 33.6844 49.6797 33.6909 49.4947C33.6974 49.3098 33.7764 49.135 33.9104 49.0089L34.8148 48.16L32.201 45.323C32.1346 45.2569 32.0822 45.178 32.0469 45.0909C32.0117 45.0038 31.9942 44.9104 31.9957 44.8163C31.9971 44.7222 32.0174 44.6293 32.0554 44.5434C32.0933 44.4575 32.1481 44.3802 32.2165 44.3162C32.2848 44.2523 32.3653 44.203 32.4531 44.1713C32.5408 44.1396 32.634 44.1262 32.727 44.132C32.82 44.1377 32.9109 44.1624 32.9941 44.2045C33.0774 44.2467 33.1514 44.3055 33.2116 44.3774L35.8254 47.2143L38.3213 44.8685L35.7069 42.0316C35.5821 41.8961 35.5157 41.7162 35.5223 41.5313C35.5288 41.3463 35.6078 41.1716 35.7419 41.0456C35.876 40.9195 36.0542 40.8524 36.2372 40.859C36.4203 40.8657 36.5933 40.9455 36.7181 41.0809L39.3319 43.9179L41.8278 41.5726L39.2135 38.7357C39.1516 38.6686 39.1035 38.5899 39.0718 38.504C39.04 38.4182 39.0254 38.3269 39.0286 38.2353C39.0318 38.1437 39.0529 38.0536 39.0905 37.9703C39.1282 37.8869 39.1818 37.8119 39.2482 37.7494C39.3146 37.6869 39.3925 37.6383 39.4775 37.6063C39.5625 37.5742 39.6529 37.5594 39.7436 37.5627C39.8343 37.5659 39.9234 37.5872 40.0059 37.6252C40.0885 37.6633 40.1628 37.7174 40.2246 37.7844L42.8384 40.6214L43.7427 39.7698C43.8087 39.7054 43.8867 39.6549 43.9723 39.6213C44.0578 39.5876 44.1491 39.5716 44.2408 39.574C44.3326 39.5765 44.4229 39.5973 44.5066 39.6354C44.5902 39.6735 44.6655 39.7281 44.7281 39.7959C44.7906 39.8638 44.8392 39.9435 44.8708 40.0305C44.9025 40.1175 44.9167 40.21 44.9126 40.3026C44.9085 40.3952 44.8862 40.486 44.8469 40.5698C44.8076 40.6536 44.7522 40.7286 44.6839 40.7905L43.7802 41.6427L46.394 44.4797C46.5172 44.6148 46.5827 44.7935 46.5762 44.977C46.5697 45.1605 46.4917 45.3341 46.3593 45.4599Z" fill="white"/>
<path d="M24.7203 59.3826C23.7381 58.4693 22.8507 57.4572 22.0718 56.362L0 80.2928L25.4925 60.0606C25.2298 59.842 24.9731 59.6167 24.7203 59.3826Z" fill="#614BFF"/>
<path d="M38.6847 64.5279C37.1843 64.5933 35.6814 64.4845 34.2056 64.2036L22.5355 78.2661L38.6897 64.5263L38.6847 64.5279Z" fill="#614BFF"/>
<path d="M18.8105 48.7722L3.34033 68.631L20.1312 52.9592C19.5353 51.6186 19.0923 50.2139 18.8105 48.7722Z" fill="#614BFF"/>
<path d="M72.4276 34.862C78.7687 31.9221 80.432 26.1469 80.432 20.582C80.432 6.51226 68.5812 0 54.0275 0H16.8115V48.5691L19.758 44.7864L20.4657 48.4333C20.7232 49.7485 21.1274 51.03 21.6707 52.2533L21.9113 52.7962C22.0811 53.1796 22.2799 53.5491 22.5061 53.9015L23.4457 55.3656C23.764 55.8106 24.1002 56.2399 24.4541 56.6534C24.4381 56.6089 24.421 56.5649 24.4051 56.5198C23.4589 53.758 23.2243 50.6829 23.7238 47.6195L23.7431 47.5016L23.7954 47.1806C23.8321 46.9659 23.8762 46.753 23.9276 46.542L24.203 45.4501C24.6048 44.0094 25.1552 42.6154 25.8452 41.2908C27.0269 39.0344 28.5777 36.996 30.4323 35.262C33.121 32.7326 36.3379 30.9186 39.7623 29.9963L40.4557 29.8233C41.0103 29.6965 41.5742 29.6164 42.1371 29.5368C42.6878 29.4584 43.2386 29.3789 43.7959 29.3377C44.1583 29.311 44.524 29.3077 44.8875 29.3077C46.6788 29.302 48.4608 29.5669 50.1745 30.0937L50.8211 30.3095C51.4626 30.5386 52.0896 30.8073 52.6986 31.1139C52.7432 31.1339 52.7801 31.1528 52.8087 31.1695L52.8197 31.1751C53.1727 31.3532 53.4486 31.6561 53.5952 32.0262C54.7759 34.8631 55.1714 38.0761 54.7385 41.3159C54.7159 41.4961 54.6906 41.6797 54.6619 41.8599L54.6311 42.0529L54.6746 42.0741L54.5375 42.6409L54.4218 43.3641H54.4422C59.5359 43.3641 62.1349 46.4091 62.1349 50.3992C62.1349 54.4945 59.64 57.3292 54.4422 57.3292H43.8559C43.1421 57.7489 42.4056 58.1277 41.6497 58.464C40.3682 59.0311 39.0337 59.4673 37.6662 59.7662L37.7213 59.8953L36.1792 60.0494L35.5927 60.1556L35.5751 60.11L35.4005 60.1278C34.7606 60.1923 34.1129 60.2252 33.4773 60.2252C31.4995 60.2327 29.5343 59.9069 27.6627 59.2612C27.3647 59.1571 27.0723 59.0436 26.7842 58.9274L27.4451 59.4837L28.1864 59.9565L28.2046 59.9693C29.3753 60.7393 30.6325 61.3661 31.9496 61.8367L33.5082 62.3929L33.5429 62.3507L34.5149 62.5365C35.6084 62.7447 36.7187 62.8494 37.8315 62.8491C38.0886 62.8491 38.3503 62.8435 38.608 62.8324L43.5547 62.6194L39.7722 65.8402L30.7595 73.505H54.3353C67.6417 73.3999 82.5071 68.4646 82.5071 51.9773C82.5099 45.3622 79.1845 38.5373 72.4276 34.862ZM53.5076 28.0371H37.0824V16.8005H53.7147C57.7692 16.8005 60.0564 19.3204 60.0564 22.5751C60.0564 25.8299 57.7697 28.0371 53.5076 28.0371Z" fill="#614BFF"/>
<path d="M27.2583 61.3723L27.2484 61.3651L13.1105 78.2201L31.3861 63.4361C29.9334 62.9174 28.5476 62.2245 27.2583 61.3723Z" fill="#614BFF"/>
</g>
<path d="M109.51 52.9459V17.8308H122.805C126.074 17.8308 128.495 18.608 130.066 20.1623C131.638 21.7166 132.424 23.9847 132.424 26.9665C132.424 28.3622 132.203 29.5993 131.763 30.6778C131.355 31.7246 130.789 32.5969 130.066 33.2948C129.343 33.9609 128.495 34.4209 127.52 34.6747C128.243 34.865 128.95 35.1663 129.642 35.5787C130.365 35.9594 131.025 36.4986 131.622 37.1965C132.219 37.8943 132.691 38.7508 133.036 39.7659C133.382 40.7492 133.555 41.907 133.555 43.2393C133.555 45.6501 133.146 47.5692 132.329 48.9967C131.543 50.3924 130.38 51.4075 128.84 52.0419C127.332 52.6446 125.509 52.9459 123.371 52.9459H109.51ZM115.309 47.6644H123.183C124.157 47.6644 125.006 47.4899 125.729 47.141C126.452 46.7921 127.002 46.237 127.379 45.4756C127.787 44.6826 127.992 43.6041 127.992 42.2401C127.992 41.1616 127.787 40.2575 127.379 39.528C126.97 38.7984 126.404 38.2433 125.681 37.8626C124.959 37.4502 124.126 37.2441 123.183 37.2441H115.309V47.6644ZM115.309 32.6762H122.9C124.063 32.6762 125.006 32.248 125.729 31.3915C126.452 30.5033 126.829 29.3455 126.86 27.9181C126.892 26.11 126.499 24.857 125.681 24.1591C124.896 23.4613 123.921 23.1124 122.758 23.1124H115.309V32.6762Z" fill="#EBEBED"/>
<path d="M148.743 53.1838C146.009 53.1838 143.824 52.8032 142.19 52.0419C140.587 51.2806 139.424 49.9642 138.701 48.0926C137.978 46.1894 137.616 43.5565 137.616 40.1941C137.616 36.7682 137.962 34.1195 138.654 32.248C139.345 30.3447 140.492 29.0125 142.095 28.2512C143.698 27.4898 145.867 27.1092 148.602 27.1092C151.022 27.1092 152.955 27.363 154.401 27.8705C155.878 28.3463 156.947 29.2186 157.607 30.4875C158.298 31.7246 158.644 33.4851 158.644 35.769C158.644 37.3868 158.33 38.6874 157.701 39.6707C157.072 40.6223 156.161 41.3043 154.967 41.7167C153.804 42.1291 152.421 42.3353 150.818 42.3353H143.415C143.478 43.9213 143.683 45.1902 144.028 46.1418C144.406 47.0617 145.066 47.7278 146.009 48.1402C146.983 48.5526 148.397 48.7588 150.252 48.7588H157.89V52.2322C156.601 52.486 155.234 52.708 153.788 52.8984C152.373 53.0887 150.692 53.1838 148.743 53.1838ZM143.368 38.7667H150.252C151.352 38.7667 152.153 38.5605 152.656 38.1481C153.191 37.704 153.458 36.911 153.458 35.769C153.458 34.6588 153.301 33.7865 152.986 33.152C152.672 32.5176 152.153 32.0735 151.431 31.8198C150.708 31.5343 149.765 31.3915 148.602 31.3915C147.282 31.3915 146.244 31.5977 145.49 32.0101C144.736 32.4225 144.186 33.1679 143.84 34.2464C143.525 35.2932 143.368 36.8 143.368 38.7667Z" fill="#EBEBED"/>
<path d="M173.027 52.9459C171.204 52.9459 169.711 52.6763 168.548 52.1371C167.385 51.5661 166.536 50.6303 166.002 49.3297C165.499 48.0292 165.263 46.3163 165.295 44.1909L165.483 32.2004H161.523V28.3939L165.672 27.4423L166.521 20.305H171.094V27.4423H177.506V32.2004H171.094V44.1434C171.094 44.9681 171.173 45.6501 171.33 46.1894C171.487 46.6969 171.707 47.1093 171.99 47.4265C172.304 47.712 172.634 47.9182 172.98 48.045C173.326 48.1719 173.687 48.2512 174.064 48.283L177.223 48.616V52.9459H173.027Z" fill="#EBEBED"/>
<path d="M181.79 64.2227V27.4423H186.646L187.636 29.9641C188.233 29.4883 188.925 29.0283 189.711 28.5842C190.496 28.1401 191.345 27.7912 192.256 27.5374C193.168 27.2519 194.111 27.1092 195.085 27.1092C196.688 27.1092 198.056 27.4264 199.187 28.0608C200.35 28.6952 201.293 29.5993 202.016 30.773C202.739 31.9149 203.258 33.2948 203.572 34.9126C203.918 36.4986 204.09 38.2591 204.09 40.1941C204.09 42.9856 203.792 45.3646 203.195 47.3313C202.629 49.2663 201.686 50.7413 200.366 51.7564C199.077 52.7715 197.317 53.279 195.085 53.279C193.828 53.279 192.539 53.1045 191.219 52.7556C189.931 52.4067 188.736 51.9467 187.636 51.3758V64.2227H181.79ZM193.247 48.4257C194.158 48.4257 194.991 48.1878 195.745 47.712C196.5 47.2044 197.097 46.3638 197.537 45.1902C198.008 44.0165 198.244 42.3511 198.244 40.1941C198.244 38.1322 198.024 36.4827 197.584 35.2456C197.144 34.0085 196.547 33.1362 195.793 32.6286C195.07 32.1211 194.237 31.8673 193.294 31.8673C192.131 31.8673 191.078 32.0577 190.135 32.4383C189.192 32.7873 188.359 33.152 187.636 33.5327V46.8555C188.453 47.3313 189.349 47.712 190.323 47.9975C191.298 48.283 192.272 48.4257 193.247 48.4257Z" fill="#EBEBED"/>
<path d="M209.277 52.9459V27.4423H213.803L215.123 31.5343C216.129 30.2972 217.245 29.2504 218.471 28.3939C219.697 27.5374 221.158 27.1092 222.855 27.1092C223.201 27.1092 223.563 27.1409 223.94 27.2044C224.317 27.2361 224.663 27.2995 224.977 27.3947V33.39C224.537 33.3265 224.066 33.2789 223.563 33.2472C223.06 33.2155 222.573 33.1996 222.101 33.1996C221.127 33.1996 220.231 33.3107 219.414 33.5327C218.628 33.7547 217.889 34.1037 217.198 34.5795C216.506 35.0236 215.815 35.5946 215.123 36.2924V52.9459H209.277Z" fill="#EBEBED"/>
<path d="M239.59 53.1838C237.61 53.1838 235.897 52.9777 234.451 52.5653C233.005 52.1529 231.827 51.4551 230.915 50.4717C230.004 49.4884 229.328 48.1561 228.888 46.4749C228.448 44.7936 228.228 42.6842 228.228 40.1465C228.228 37.5137 228.448 35.3567 228.888 33.6754C229.328 31.9625 230.004 30.6302 230.915 29.6786C231.858 28.6952 233.052 28.0291 234.498 27.6802C235.944 27.2995 237.641 27.1092 239.59 27.1092C241.602 27.1092 243.331 27.3154 244.776 27.7278C246.222 28.1084 247.401 28.7746 248.312 29.7262C249.224 30.6778 249.9 32.0101 250.34 33.723C250.78 35.4042 251 37.5454 251 40.1465C251 42.7159 250.78 44.8571 250.34 46.57C249.931 48.2512 249.271 49.5835 248.36 50.5669C247.448 51.5185 246.269 52.2005 244.824 52.6129C243.378 52.9935 241.633 53.1838 239.59 53.1838ZM239.59 48.4733C240.565 48.4733 241.398 48.394 242.089 48.2354C242.781 48.045 243.346 47.6803 243.786 47.141C244.258 46.57 244.604 45.7294 244.824 44.6192C245.044 43.4772 245.154 41.9705 245.154 40.0989C245.154 38.2591 245.044 36.7841 244.824 35.6739C244.604 34.5636 244.258 33.7389 243.786 33.1996C243.346 32.6286 242.781 32.2639 242.089 32.1053C241.398 31.9149 240.565 31.8198 239.59 31.8198C238.647 31.8198 237.83 31.9149 237.139 32.1053C236.447 32.2639 235.881 32.6286 235.441 33.1996C235.001 33.7389 234.655 34.5636 234.404 35.6739C234.184 36.7841 234.074 38.2591 234.074 40.0989C234.074 41.9705 234.184 43.4772 234.404 44.6192C234.655 45.7294 235.001 46.57 235.441 47.141C235.881 47.6803 236.447 48.045 237.139 48.2354C237.83 48.394 238.647 48.4733 239.59 48.4733Z" fill="#EBEBED"/>
<defs>
<clipPath id="clip0_38_5528">
<rect width="82.5079" height="80.2937" fill="white"/>
</clipPath>
</defs>
</svg>
