<?xml version="1.0" encoding="utf-8"?>
<!DOCTYPE svg PUBLIC "-//W3C//DTD SVG 1.1//EN" "http://www.w3.org/Graphics/SVG/1.1/DTD/svg11.dtd">
<svg xmlns="http://www.w3.org/2000/svg" version="1.1" xml:space="preserve" xmlns:xlink="http://www.w3.org/1999/xlink" width="165" height="165" viewBox="0 0 165 165">
<desc></desc>
<rect width="165" height="165" fill="#ffffff" cx="0" cy="0" />
<defs>
	<rect id="p" width="5" height="5" />
</defs>
<g fill="#000000">
	<use x="10" y="10" xlink:href="#p" />
	<use x="15" y="10" xlink:href="#p" />
	<use x="20" y="10" xlink:href="#p" />
	<use x="25" y="10" xlink:href="#p" />
	<use x="30" y="10" xlink:href="#p" />
	<use x="35" y="10" xlink:href="#p" />
	<use x="40" y="10" xlink:href="#p" />
	<use x="60" y="10" xlink:href="#p" />
	<use x="80" y="10" xlink:href="#p" />
	<use x="105" y="10" xlink:href="#p" />
	<use x="120" y="10" xlink:href="#p" />
	<use x="125" y="10" xlink:href="#p" />
	<use x="130" y="10" xlink:href="#p" />
	<use x="135" y="10" xlink:href="#p" />
	<use x="140" y="10" xlink:href="#p" />
	<use x="145" y="10" xlink:href="#p" />
	<use x="150" y="10" xlink:href="#p" />
	<use x="10" y="15" xlink:href="#p" />
	<use x="40" y="15" xlink:href="#p" />
	<use x="55" y="15" xlink:href="#p" />
	<use x="75" y="15" xlink:href="#p" />
	<use x="105" y="15" xlink:href="#p" />
	<use x="120" y="15" xlink:href="#p" />
	<use x="150" y="15" xlink:href="#p" />
	<use x="10" y="20" xlink:href="#p" />
	<use x="20" y="20" xlink:href="#p" />
	<use x="25" y="20" xlink:href="#p" />
	<use x="30" y="20" xlink:href="#p" />
	<use x="40" y="20" xlink:href="#p" />
	<use x="50" y="20" xlink:href="#p" />
	<use x="65" y="20" xlink:href="#p" />
	<use x="85" y="20" xlink:href="#p" />
	<use x="100" y="20" xlink:href="#p" />
	<use x="110" y="20" xlink:href="#p" />
	<use x="120" y="20" xlink:href="#p" />
	<use x="130" y="20" xlink:href="#p" />
	<use x="135" y="20" xlink:href="#p" />
	<use x="140" y="20" xlink:href="#p" />
	<use x="150" y="20" xlink:href="#p" />
	<use x="10" y="25" xlink:href="#p" />
	<use x="20" y="25" xlink:href="#p" />
	<use x="25" y="25" xlink:href="#p" />
	<use x="30" y="25" xlink:href="#p" />
	<use x="40" y="25" xlink:href="#p" />
	<use x="55" y="25" xlink:href="#p" />
	<use x="70" y="25" xlink:href="#p" />
	<use x="75" y="25" xlink:href="#p" />
	<use x="100" y="25" xlink:href="#p" />
	<use x="105" y="25" xlink:href="#p" />
	<use x="110" y="25" xlink:href="#p" />
	<use x="120" y="25" xlink:href="#p" />
	<use x="130" y="25" xlink:href="#p" />
	<use x="135" y="25" xlink:href="#p" />
	<use x="140" y="25" xlink:href="#p" />
	<use x="150" y="25" xlink:href="#p" />
	<use x="10" y="30" xlink:href="#p" />
	<use x="20" y="30" xlink:href="#p" />
	<use x="25" y="30" xlink:href="#p" />
	<use x="30" y="30" xlink:href="#p" />
	<use x="40" y="30" xlink:href="#p" />
	<use x="55" y="30" xlink:href="#p" />
	<use x="70" y="30" xlink:href="#p" />
	<use x="75" y="30" xlink:href="#p" />
	<use x="90" y="30" xlink:href="#p" />
	<use x="95" y="30" xlink:href="#p" />
	<use x="100" y="30" xlink:href="#p" />
	<use x="105" y="30" xlink:href="#p" />
	<use x="120" y="30" xlink:href="#p" />
	<use x="130" y="30" xlink:href="#p" />
	<use x="135" y="30" xlink:href="#p" />
	<use x="140" y="30" xlink:href="#p" />
	<use x="150" y="30" xlink:href="#p" />
	<use x="10" y="35" xlink:href="#p" />
	<use x="40" y="35" xlink:href="#p" />
	<use x="60" y="35" xlink:href="#p" />
	<use x="65" y="35" xlink:href="#p" />
	<use x="70" y="35" xlink:href="#p" />
	<use x="80" y="35" xlink:href="#p" />
	<use x="85" y="35" xlink:href="#p" />
	<use x="90" y="35" xlink:href="#p" />
	<use x="95" y="35" xlink:href="#p" />
	<use x="105" y="35" xlink:href="#p" />
	<use x="110" y="35" xlink:href="#p" />
	<use x="120" y="35" xlink:href="#p" />
	<use x="150" y="35" xlink:href="#p" />
	<use x="10" y="40" xlink:href="#p" />
	<use x="15" y="40" xlink:href="#p" />
	<use x="20" y="40" xlink:href="#p" />
	<use x="25" y="40" xlink:href="#p" />
	<use x="30" y="40" xlink:href="#p" />
	<use x="35" y="40" xlink:href="#p" />
	<use x="40" y="40" xlink:href="#p" />
	<use x="50" y="40" xlink:href="#p" />
	<use x="60" y="40" xlink:href="#p" />
	<use x="70" y="40" xlink:href="#p" />
	<use x="80" y="40" xlink:href="#p" />
	<use x="90" y="40" xlink:href="#p" />
	<use x="100" y="40" xlink:href="#p" />
	<use x="110" y="40" xlink:href="#p" />
	<use x="120" y="40" xlink:href="#p" />
	<use x="125" y="40" xlink:href="#p" />
	<use x="130" y="40" xlink:href="#p" />
	<use x="135" y="40" xlink:href="#p" />
	<use x="140" y="40" xlink:href="#p" />
	<use x="145" y="40" xlink:href="#p" />
	<use x="150" y="40" xlink:href="#p" />
	<use x="50" y="45" xlink:href="#p" />
	<use x="65" y="45" xlink:href="#p" />
	<use x="90" y="45" xlink:href="#p" />
	<use x="95" y="45" xlink:href="#p" />
	<use x="100" y="45" xlink:href="#p" />
	<use x="105" y="45" xlink:href="#p" />
	<use x="10" y="50" xlink:href="#p" />
	<use x="15" y="50" xlink:href="#p" />
	<use x="20" y="50" xlink:href="#p" />
	<use x="30" y="50" xlink:href="#p" />
	<use x="35" y="50" xlink:href="#p" />
	<use x="40" y="50" xlink:href="#p" />
	<use x="45" y="50" xlink:href="#p" />
	<use x="50" y="50" xlink:href="#p" />
	<use x="70" y="50" xlink:href="#p" />
	<use x="85" y="50" xlink:href="#p" />
	<use x="90" y="50" xlink:href="#p" />
	<use x="95" y="50" xlink:href="#p" />
	<use x="110" y="50" xlink:href="#p" />
	<use x="115" y="50" xlink:href="#p" />
	<use x="120" y="50" xlink:href="#p" />
	<use x="140" y="50" xlink:href="#p" />
	<use x="10" y="55" xlink:href="#p" />
	<use x="15" y="55" xlink:href="#p" />
	<use x="35" y="55" xlink:href="#p" />
	<use x="50" y="55" xlink:href="#p" />
	<use x="55" y="55" xlink:href="#p" />
	<use x="65" y="55" xlink:href="#p" />
	<use x="70" y="55" xlink:href="#p" />
	<use x="75" y="55" xlink:href="#p" />
	<use x="100" y="55" xlink:href="#p" />
	<use x="110" y="55" xlink:href="#p" />
	<use x="115" y="55" xlink:href="#p" />
	<use x="120" y="55" xlink:href="#p" />
	<use x="135" y="55" xlink:href="#p" />
	<use x="150" y="55" xlink:href="#p" />
	<use x="15" y="60" xlink:href="#p" />
	<use x="20" y="60" xlink:href="#p" />
	<use x="25" y="60" xlink:href="#p" />
	<use x="30" y="60" xlink:href="#p" />
	<use x="40" y="60" xlink:href="#p" />
	<use x="60" y="60" xlink:href="#p" />
	<use x="65" y="60" xlink:href="#p" />
	<use x="70" y="60" xlink:href="#p" />
	<use x="80" y="60" xlink:href="#p" />
	<use x="95" y="60" xlink:href="#p" />
	<use x="100" y="60" xlink:href="#p" />
	<use x="120" y="60" xlink:href="#p" />
	<use x="125" y="60" xlink:href="#p" />
	<use x="130" y="60" xlink:href="#p" />
	<use x="140" y="60" xlink:href="#p" />
	<use x="145" y="60" xlink:href="#p" />
	<use x="150" y="60" xlink:href="#p" />
	<use x="15" y="65" xlink:href="#p" />
	<use x="25" y="65" xlink:href="#p" />
	<use x="35" y="65" xlink:href="#p" />
	<use x="45" y="65" xlink:href="#p" />
	<use x="50" y="65" xlink:href="#p" />
	<use x="55" y="65" xlink:href="#p" />
	<use x="60" y="65" xlink:href="#p" />
	<use x="70" y="65" xlink:href="#p" />
	<use x="75" y="65" xlink:href="#p" />
	<use x="80" y="65" xlink:href="#p" />
	<use x="95" y="65" xlink:href="#p" />
	<use x="110" y="65" xlink:href="#p" />
	<use x="125" y="65" xlink:href="#p" />
	<use x="130" y="65" xlink:href="#p" />
	<use x="145" y="65" xlink:href="#p" />
	<use x="15" y="70" xlink:href="#p" />
	<use x="30" y="70" xlink:href="#p" />
	<use x="40" y="70" xlink:href="#p" />
	<use x="60" y="70" xlink:href="#p" />
	<use x="65" y="70" xlink:href="#p" />
	<use x="80" y="70" xlink:href="#p" />
	<use x="90" y="70" xlink:href="#p" />
	<use x="95" y="70" xlink:href="#p" />
	<use x="105" y="70" xlink:href="#p" />
	<use x="110" y="70" xlink:href="#p" />
	<use x="115" y="70" xlink:href="#p" />
	<use x="120" y="70" xlink:href="#p" />
	<use x="135" y="70" xlink:href="#p" />
	<use x="145" y="70" xlink:href="#p" />
	<use x="150" y="70" xlink:href="#p" />
	<use x="10" y="75" xlink:href="#p" />
	<use x="20" y="75" xlink:href="#p" />
	<use x="45" y="75" xlink:href="#p" />
	<use x="55" y="75" xlink:href="#p" />
	<use x="60" y="75" xlink:href="#p" />
	<use x="65" y="75" xlink:href="#p" />
	<use x="80" y="75" xlink:href="#p" />
	<use x="90" y="75" xlink:href="#p" />
	<use x="95" y="75" xlink:href="#p" />
	<use x="115" y="75" xlink:href="#p" />
	<use x="120" y="75" xlink:href="#p" />
	<use x="135" y="75" xlink:href="#p" />
	<use x="150" y="75" xlink:href="#p" />
	<use x="15" y="80" xlink:href="#p" />
	<use x="30" y="80" xlink:href="#p" />
	<use x="35" y="80" xlink:href="#p" />
	<use x="40" y="80" xlink:href="#p" />
	<use x="45" y="80" xlink:href="#p" />
	<use x="55" y="80" xlink:href="#p" />
	<use x="60" y="80" xlink:href="#p" />
	<use x="75" y="80" xlink:href="#p" />
	<use x="100" y="80" xlink:href="#p" />
	<use x="115" y="80" xlink:href="#p" />
	<use x="120" y="80" xlink:href="#p" />
	<use x="125" y="80" xlink:href="#p" />
	<use x="135" y="80" xlink:href="#p" />
	<use x="145" y="80" xlink:href="#p" />
	<use x="150" y="80" xlink:href="#p" />
	<use x="10" y="85" xlink:href="#p" />
	<use x="15" y="85" xlink:href="#p" />
	<use x="20" y="85" xlink:href="#p" />
	<use x="35" y="85" xlink:href="#p" />
	<use x="45" y="85" xlink:href="#p" />
	<use x="55" y="85" xlink:href="#p" />
	<use x="60" y="85" xlink:href="#p" />
	<use x="65" y="85" xlink:href="#p" />
	<use x="85" y="85" xlink:href="#p" />
	<use x="95" y="85" xlink:href="#p" />
	<use x="100" y="85" xlink:href="#p" />
	<use x="105" y="85" xlink:href="#p" />
	<use x="110" y="85" xlink:href="#p" />
	<use x="120" y="85" xlink:href="#p" />
	<use x="125" y="85" xlink:href="#p" />
	<use x="135" y="85" xlink:href="#p" />
	<use x="145" y="85" xlink:href="#p" />
	<use x="10" y="90" xlink:href="#p" />
	<use x="15" y="90" xlink:href="#p" />
	<use x="25" y="90" xlink:href="#p" />
	<use x="40" y="90" xlink:href="#p" />
	<use x="45" y="90" xlink:href="#p" />
	<use x="70" y="90" xlink:href="#p" />
	<use x="85" y="90" xlink:href="#p" />
	<use x="90" y="90" xlink:href="#p" />
	<use x="95" y="90" xlink:href="#p" />
	<use x="105" y="90" xlink:href="#p" />
	<use x="110" y="90" xlink:href="#p" />
	<use x="115" y="90" xlink:href="#p" />
	<use x="120" y="90" xlink:href="#p" />
	<use x="125" y="90" xlink:href="#p" />
	<use x="135" y="90" xlink:href="#p" />
	<use x="145" y="90" xlink:href="#p" />
	<use x="150" y="90" xlink:href="#p" />
	<use x="15" y="95" xlink:href="#p" />
	<use x="20" y="95" xlink:href="#p" />
	<use x="25" y="95" xlink:href="#p" />
	<use x="45" y="95" xlink:href="#p" />
	<use x="50" y="95" xlink:href="#p" />
	<use x="55" y="95" xlink:href="#p" />
	<use x="65" y="95" xlink:href="#p" />
	<use x="70" y="95" xlink:href="#p" />
	<use x="75" y="95" xlink:href="#p" />
	<use x="90" y="95" xlink:href="#p" />
	<use x="110" y="95" xlink:href="#p" />
	<use x="115" y="95" xlink:href="#p" />
	<use x="120" y="95" xlink:href="#p" />
	<use x="135" y="95" xlink:href="#p" />
	<use x="140" y="95" xlink:href="#p" />
	<use x="150" y="95" xlink:href="#p" />
	<use x="10" y="100" xlink:href="#p" />
	<use x="20" y="100" xlink:href="#p" />
	<use x="25" y="100" xlink:href="#p" />
	<use x="30" y="100" xlink:href="#p" />
	<use x="40" y="100" xlink:href="#p" />
	<use x="50" y="100" xlink:href="#p" />
	<use x="65" y="100" xlink:href="#p" />
	<use x="70" y="100" xlink:href="#p" />
	<use x="80" y="100" xlink:href="#p" />
	<use x="90" y="100" xlink:href="#p" />
	<use x="120" y="100" xlink:href="#p" />
	<use x="125" y="100" xlink:href="#p" />
	<use x="130" y="100" xlink:href="#p" />
	<use x="145" y="100" xlink:href="#p" />
	<use x="150" y="100" xlink:href="#p" />
	<use x="15" y="105" xlink:href="#p" />
	<use x="20" y="105" xlink:href="#p" />
	<use x="25" y="105" xlink:href="#p" />
	<use x="60" y="105" xlink:href="#p" />
	<use x="70" y="105" xlink:href="#p" />
	<use x="75" y="105" xlink:href="#p" />
	<use x="80" y="105" xlink:href="#p" />
	<use x="85" y="105" xlink:href="#p" />
	<use x="90" y="105" xlink:href="#p" />
	<use x="95" y="105" xlink:href="#p" />
	<use x="110" y="105" xlink:href="#p" />
	<use x="130" y="105" xlink:href="#p" />
	<use x="135" y="105" xlink:href="#p" />
	<use x="145" y="105" xlink:href="#p" />
	<use x="10" y="110" xlink:href="#p" />
	<use x="20" y="110" xlink:href="#p" />
	<use x="25" y="110" xlink:href="#p" />
	<use x="35" y="110" xlink:href="#p" />
	<use x="40" y="110" xlink:href="#p" />
	<use x="45" y="110" xlink:href="#p" />
	<use x="60" y="110" xlink:href="#p" />
	<use x="65" y="110" xlink:href="#p" />
	<use x="80" y="110" xlink:href="#p" />
	<use x="85" y="110" xlink:href="#p" />
	<use x="90" y="110" xlink:href="#p" />
	<use x="95" y="110" xlink:href="#p" />
	<use x="100" y="110" xlink:href="#p" />
	<use x="105" y="110" xlink:href="#p" />
	<use x="110" y="110" xlink:href="#p" />
	<use x="115" y="110" xlink:href="#p" />
	<use x="120" y="110" xlink:href="#p" />
	<use x="125" y="110" xlink:href="#p" />
	<use x="130" y="110" xlink:href="#p" />
	<use x="50" y="115" xlink:href="#p" />
	<use x="65" y="115" xlink:href="#p" />
	<use x="80" y="115" xlink:href="#p" />
	<use x="90" y="115" xlink:href="#p" />
	<use x="105" y="115" xlink:href="#p" />
	<use x="110" y="115" xlink:href="#p" />
	<use x="130" y="115" xlink:href="#p" />
	<use x="140" y="115" xlink:href="#p" />
	<use x="145" y="115" xlink:href="#p" />
	<use x="150" y="115" xlink:href="#p" />
	<use x="10" y="120" xlink:href="#p" />
	<use x="15" y="120" xlink:href="#p" />
	<use x="20" y="120" xlink:href="#p" />
	<use x="25" y="120" xlink:href="#p" />
	<use x="30" y="120" xlink:href="#p" />
	<use x="35" y="120" xlink:href="#p" />
	<use x="40" y="120" xlink:href="#p" />
	<use x="50" y="120" xlink:href="#p" />
	<use x="55" y="120" xlink:href="#p" />
	<use x="75" y="120" xlink:href="#p" />
	<use x="90" y="120" xlink:href="#p" />
	<use x="95" y="120" xlink:href="#p" />
	<use x="105" y="120" xlink:href="#p" />
	<use x="110" y="120" xlink:href="#p" />
	<use x="120" y="120" xlink:href="#p" />
	<use x="130" y="120" xlink:href="#p" />
	<use x="135" y="120" xlink:href="#p" />
	<use x="145" y="120" xlink:href="#p" />
	<use x="150" y="120" xlink:href="#p" />
	<use x="10" y="125" xlink:href="#p" />
	<use x="40" y="125" xlink:href="#p" />
	<use x="50" y="125" xlink:href="#p" />
	<use x="55" y="125" xlink:href="#p" />
	<use x="65" y="125" xlink:href="#p" />
	<use x="95" y="125" xlink:href="#p" />
	<use x="100" y="125" xlink:href="#p" />
	<use x="110" y="125" xlink:href="#p" />
	<use x="130" y="125" xlink:href="#p" />
	<use x="135" y="125" xlink:href="#p" />
	<use x="150" y="125" xlink:href="#p" />
	<use x="10" y="130" xlink:href="#p" />
	<use x="20" y="130" xlink:href="#p" />
	<use x="25" y="130" xlink:href="#p" />
	<use x="30" y="130" xlink:href="#p" />
	<use x="40" y="130" xlink:href="#p" />
	<use x="50" y="130" xlink:href="#p" />
	<use x="70" y="130" xlink:href="#p" />
	<use x="90" y="130" xlink:href="#p" />
	<use x="95" y="130" xlink:href="#p" />
	<use x="110" y="130" xlink:href="#p" />
	<use x="115" y="130" xlink:href="#p" />
	<use x="120" y="130" xlink:href="#p" />
	<use x="125" y="130" xlink:href="#p" />
	<use x="130" y="130" xlink:href="#p" />
	<use x="150" y="130" xlink:href="#p" />
	<use x="10" y="135" xlink:href="#p" />
	<use x="20" y="135" xlink:href="#p" />
	<use x="25" y="135" xlink:href="#p" />
	<use x="30" y="135" xlink:href="#p" />
	<use x="40" y="135" xlink:href="#p" />
	<use x="65" y="135" xlink:href="#p" />
	<use x="70" y="135" xlink:href="#p" />
	<use x="75" y="135" xlink:href="#p" />
	<use x="90" y="135" xlink:href="#p" />
	<use x="95" y="135" xlink:href="#p" />
	<use x="100" y="135" xlink:href="#p" />
	<use x="110" y="135" xlink:href="#p" />
	<use x="115" y="135" xlink:href="#p" />
	<use x="125" y="135" xlink:href="#p" />
	<use x="130" y="135" xlink:href="#p" />
	<use x="140" y="135" xlink:href="#p" />
	<use x="145" y="135" xlink:href="#p" />
	<use x="150" y="135" xlink:href="#p" />
	<use x="10" y="140" xlink:href="#p" />
	<use x="20" y="140" xlink:href="#p" />
	<use x="25" y="140" xlink:href="#p" />
	<use x="30" y="140" xlink:href="#p" />
	<use x="40" y="140" xlink:href="#p" />
	<use x="50" y="140" xlink:href="#p" />
	<use x="55" y="140" xlink:href="#p" />
	<use x="65" y="140" xlink:href="#p" />
	<use x="70" y="140" xlink:href="#p" />
	<use x="80" y="140" xlink:href="#p" />
	<use x="100" y="140" xlink:href="#p" />
	<use x="110" y="140" xlink:href="#p" />
	<use x="130" y="140" xlink:href="#p" />
	<use x="135" y="140" xlink:href="#p" />
	<use x="150" y="140" xlink:href="#p" />
	<use x="10" y="145" xlink:href="#p" />
	<use x="40" y="145" xlink:href="#p" />
	<use x="50" y="145" xlink:href="#p" />
	<use x="60" y="145" xlink:href="#p" />
	<use x="70" y="145" xlink:href="#p" />
	<use x="75" y="145" xlink:href="#p" />
	<use x="80" y="145" xlink:href="#p" />
	<use x="85" y="145" xlink:href="#p" />
	<use x="90" y="145" xlink:href="#p" />
	<use x="95" y="145" xlink:href="#p" />
	<use x="105" y="145" xlink:href="#p" />
	<use x="110" y="145" xlink:href="#p" />
	<use x="120" y="145" xlink:href="#p" />
	<use x="145" y="145" xlink:href="#p" />
	<use x="10" y="150" xlink:href="#p" />
	<use x="15" y="150" xlink:href="#p" />
	<use x="20" y="150" xlink:href="#p" />
	<use x="25" y="150" xlink:href="#p" />
	<use x="30" y="150" xlink:href="#p" />
	<use x="35" y="150" xlink:href="#p" />
	<use x="40" y="150" xlink:href="#p" />
	<use x="50" y="150" xlink:href="#p" />
	<use x="65" y="150" xlink:href="#p" />
	<use x="80" y="150" xlink:href="#p" />
	<use x="95" y="150" xlink:href="#p" />
	<use x="105" y="150" xlink:href="#p" />
	<use x="110" y="150" xlink:href="#p" />
	<use x="125" y="150" xlink:href="#p" />
	<use x="130" y="150" xlink:href="#p" />
	<use x="145" y="150" xlink:href="#p" />
	<use x="150" y="150" xlink:href="#p" />
</g>
</svg>